<svg xmlns="http://www.w3.org/2000/svg" width="32" height="32" fill="currentColor" class="bi bi-question-circle" viewBox="0 0 16 16">
  <path d="M8 1a7 7 0 1 0 0 14A7 7 0 0 0 8 1zM0 8a8 8 0 1 1 16 0A8 8 0 0 1 0 8z"/>
  <path d="M5.255 5.786a.237.237 0 0 0 .241.247h.825c.138 0 .248-.113.266-.25.09-.656.55-1.134 1.21-1.134.684 0 1.194.513 1.194 1.2 0 .6-.346.927-.866 1.371-.673.56-1.02 1.002-1.02 1.856v.105c0 .138.113.25.25.25h.824a.25.25 0 0 0 .25-.25v-.087c0-.708.254-1.012.934-1.577.564-.464 1.132-1.05 1.132-2.057 0-1.357-1.066-2.25-2.495-2.25-1.356 0-2.337.89-2.46 2.104zm1.765 5.345c0 .431.345.786.77.786.425 0 .77-.355.77-.786 0-.432-.345-.786-.77-.786-.425 0-.77.354-.77.786z"/>
</svg>